# Blender 3.4.1
# www.blender.org
mtllib cornell.mtl
o CornellBox-Original
v -1.010000 -0.000000 0.990000
v 1.000000 -0.000000 0.990000
v 1.000000 0.000000 -1.040000
v -0.990000 0.000000 -1.040000
v -1.020000 1.990000 0.990000
v -1.020000 1.990000 -1.040000
v 1.000000 1.990000 -1.040000
v 1.000000 1.990000 0.990000
v 0.530000 0.600000 0.750000
v 0.700000 0.600000 0.170000
v 0.130000 0.600000 0.000000
v -0.050000 0.600000 0.570000
v -0.050000 -0.000000 0.570000
v 0.130000 0.000000 0.000000
v 0.530000 -0.000000 0.750000
v 0.700000 -0.000000 0.170000
v -0.530000 1.200000 0.090000
v 0.040000 1.200000 -0.090000
v -0.140000 1.200000 -0.670000
v -0.710000 1.200000 -0.490000
v -0.530000 -0.000000 0.090000
v -0.710000 0.000000 -0.490000
v -0.140000 0.000000 -0.670000
v 0.040000 0.000000 -0.090000
v -0.240000 1.980000 0.160000
v -0.240000 1.980000 -0.220000
v 0.230000 1.980000 -0.220000
v 0.230000 1.980000 0.160000
vn -0.0000 1.0000 -0.0000
vn -0.0000 -1.0000 -0.0000
vn -0.0000 -0.0000 1.0000
vn -1.0000 -0.0000 -0.0000
vn 0.9999 0.0100 0.0049
vn -0.9536 -0.0000 -0.3011
vn -0.2964 -0.0000 0.9551
vn 0.2858 -0.0000 -0.9583
vn 0.9596 -0.0000 0.2813
vn -0.9551 -0.0000 0.2964
vn -0.3011 -0.0000 -0.9536
vn 0.9551 -0.0000 -0.2964
vn 0.3011 -0.0000 0.9536
s 0
usemtl red
f 3//4 2//4 8//4 7//4
usemtl white
f 1//1 2//1 3//1 4//1
f 5//2 6//2 7//2 8//2
f 4//3 3//3 7//3 6//3
f 9//1 10//1 11//1 12//1
f 13//6 12//6 11//6 14//6
f 15//7 9//7 12//7 13//7
f 14//8 11//8 10//8 16//8
f 16//9 10//9 9//9 15//9
f 17//1 18//1 19//1 20//1
f 21//10 17//10 20//10 22//10
f 22//11 20//11 19//11 23//11
f 23//12 19//12 18//12 24//12
f 24//13 18//13 17//13 21//13
usemtl green
f 1//5 4//5 6//5 5//5
usemtl light
f 25//2 26//2 27//2 28//2
